<?xml version="1.0" encoding="UTF-8"?>
<svg width="1200pt" height="1200pt" version="1.1" viewBox="0 0 1200 1200" xmlns="http://www.w3.org/2000/svg">
 <g>
  <rect width="1200" height="1200" fill="transparent"/>
  <path d="m612.44 617.14-25.457-12.727c-3.6367-1.8203-3.6367-7.0078 0-8.8242l25.457-12.727c7.6406-3.8203 13.832-10.016 17.648-17.652l12.727-25.453c1.8164-3.6367 7.0078-3.6367 8.8242 0l12.727 25.453c3.8203 7.6406 10.012 13.832 17.648 17.652l25.457 12.727c3.6367 1.8164 3.6367 7.0078 0 8.8242l-25.457 12.727c-7.6406 3.8203-13.832 10.012-17.648 17.652l-12.727 25.453c-1.8164 3.6367-7.0078 3.6367-8.8242 0l-12.727-25.453c-3.8203-7.6406-10.012-13.832-17.648-17.652zm239.46-269.04h-361.1l37.242 62.066c5.8711 9.7773 8.9805 20.988 8.9805 32.395h251.91c17.391 0 31.488 14.098 31.488 31.484v251.91c0 17.387-14.098 31.488-31.488 31.488h-251.91c0 11.406-3.1055 22.617-8.9805 32.395 0 0-74.316 122.79-76.156 125.05h53.648c17.391 0 31.488-14.102 31.488-31.488v-31.488h188.93v31.488c0 17.387 14.098 31.488 31.488 31.488h62.977c17.391 0 31.488-14.102 31.488-31.488v-31.488c34.781 0 62.977-28.195 62.977-62.977l-0.003906-377.85c0-34.781-28.195-62.977-62.977-62.977zm-488.07 566.51v-629.22c-0.70703-0.046875-1.3711-0.27344-2.0859-0.27344h-45.148c-17.391 0-31.488 14.098-31.488 31.488v566.79c0 17.387 14.098 31.488 31.488 31.488h45.148c0.71094 0 1.3789-0.22266 2.0859-0.26953zm110.21-472.05-78.719-131.2v577.29l78.719-131.2 0.003906-314.88z"/>
 </g>
</svg>
