<?xml version="1.0" encoding="UTF-8"?>
<svg width="1200pt" height="1200pt" version="1.1" viewBox="0 0 1200 1200" xmlns="http://www.w3.org/2000/svg">
 <g>
  <rect width="1200" height="1200" fill="transparent"/>
  <path d="m439.06 939.16c-15.668 0-30.406-6.1094-41.492-17.191l-119.53-119.53c-11.082-11.082-17.18-25.809-17.18-41.488 0-15.668 6.0938-30.406 17.176-41.488l256.47-256.46c37.551-37.551 93.723-49.172 143.09-29.594 6 2.3711 12.824 0.97266 17.379-3.5859l93.039-93.051c3.0352-3.0352 7.9531-3.0352 10.988 0 3.0352 3.0352 3.0352 7.9414 0 10.977l-93.047 93.047c-8.9414 8.9414-22.316 11.703-34.074 7.0508-43.602-17.301-93.211-7.0391-126.38 26.129l-256.47 256.47c-8.1445 8.1562-12.633 18.984-12.633 30.5 0 11.527 4.4883 22.355 12.633 30.512l119.52 119.52c8.1562 8.1562 18.984 12.648 30.512 12.648 11.516 0 22.355-4.4883 30.5-12.648l256.47-256.47c33.168-33.156 43.43-82.762 26.145-126.38-4.6641-11.758-1.9023-25.133 7.0391-34.074l93.051-93.051c3.0352-3.0352 7.9414-3.0352 10.973 0 3.0352 3.0352 3.0352 7.9531 0 10.988l-93.035 93.047c-4.5586 4.543-5.9766 11.367-3.5898 17.367 19.566 49.375 7.957 105.54-29.598 143.09l-256.47 256.47c-11.082 11.082-25.82 17.191-41.488 17.191z" fill-rule="evenodd"/>
  <path d="m890.19 392.24h0.011719zm-98.453-62.727 78.758 78.758 17.867-17.863-78.746-78.758zm78.758 95.355c-3.4688 0-6.7188-1.3359-9.1562-3.7891l-82.41-82.41c-2.4375-2.4414-3.7891-5.6914-3.7891-9.1562 0-3.4531 1.3477-6.7031 3.7891-9.1406l21.535-21.535c5.043-5.043 13.254-5.043 18.297 0l82.426 82.41c2.4414 2.4414 3.7891 5.6914 3.7891 9.1562 0 3.4531-1.3477 6.7031-3.7891 9.1406l-21.531 21.531c-2.4531 2.4414-5.7031 3.7891-9.1523 3.7891z" fill-rule="evenodd"/>
  <path d="m875.32 374.13c-2.8594 0-5.6094-1.5781-6.9727-4.3164-1.9023-3.8438-0.33594-8.5078 3.5039-10.41l50.293-24.957-56.605-56.59-24.945 50.293c-1.8984 3.8438-6.5547 5.4219-10.41 3.5039-3.8398-1.9023-5.4062-6.5664-3.5039-10.41l26.266-52.949c1.9141-3.8555 5.5938-6.5781 9.8438-7.2812 4.25-0.6875 8.5898 0.71484 11.637 3.75l60.797 60.797c3.0352 3.0469 4.4375 7.4023 3.75 11.648-0.69922 4.2461-3.4258 7.9141-7.2812 9.8281l-52.934 26.277c-1.1055 0.55078-2.293 0.80859-3.4375 0.80859z" fill-rule="evenodd"/>
  <path d="m622.09 510.99c-0.875 0-1.5273 0.16406-1.918 0.44531-2.2227 2.9648 3.8164 21.789 25.199 43.188 21.387 21.383 40.223 27.426 43.199 25.172 2.2383-2.9688-3.8008-21.789-25.199-43.188-18.633-18.633-35.328-25.617-41.285-25.617zm64.637 84.715c-15.168 0-35.988-13.754-52.344-30.109-21.746-21.75-38.914-51.426-25.172-65.152 13.73-13.738 43.391 3.4258 65.152 25.188h0.003906c21.762 21.75 38.91 51.426 25.184 65.152-3.4102 3.4102-7.8086 4.9219-12.824 4.9219z" fill-rule="evenodd"/>
  <path d="m442.7 837.71c-4.9102 0-10.438-1.1445-16.398-3.4531-11.797-4.5703-24.539-13.336-35.891-24.676-25.738-25.754-35.258-55.078-22.125-68.211l240.94-240.94c3.0352-3.0352 7.9375-3.0352 10.973 0 3.0352 3.0352 3.0352 7.957 0 10.988l-240.92 240.92c-4.8008 4.8008 1.5781 25.699 22.125 46.246 9.707 9.707 20.832 17.434 30.516 21.168 8.8867 3.4375 14.023 2.668 15.734 0.97266l240.92-240.92c3.0352-3.0352 7.9531-3.0352 10.988 0 3.0352 3.0312 3.0352 7.957 0 10.988l-240.93 240.91c-3.9805 3.9922-9.4258 6-15.926 6z" fill-rule="evenodd"/>
  <path d="m386.04 800.73c-1.9805 0-3.9805-0.75391-5.4883-2.2656-3.0352-3.0352-3.0352-7.957 0-10.988l243.88-243.88c3.0352-3.0352 7.9414-3.0352 10.973 0 3.0352 3.0352 3.0352 7.957 0 10.988l-243.88 243.88c-1.5117 1.5117-3.5078 2.2656-5.4883 2.2656z" fill-rule="evenodd"/>
 </g>
</svg>
