<?xml version="1.0" encoding="UTF-8"?>
<svg width="1200pt" height="1200pt" version="1.1" viewBox="0 0 1200 1200" xmlns="http://www.w3.org/2000/svg">
 <g>
  <rect width="1200" height="1200" fill="transparent"/>
  <path d="m405.68 945.47h388.65c41.664 0 75.57-33.906 75.57-75.57v-259.11c0-41.664-33.906-75.57-75.57-75.57h-21.594v-107.96c0-95.242-77.492-172.73-172.73-172.73s-172.73 77.492-172.73 172.73v107.96h-21.594c-41.664 0-75.566 33.906-75.566 75.57v259.1c0 41.668 33.902 75.574 75.57 75.574zm86.367-518.21c0-59.523 48.434-107.96 107.96-107.96 59.523 0 107.96 48.434 107.96 107.96v107.94h-215.92zm-97.164 183.53c0-5.9453 4.8398-10.797 10.797-10.797h388.65c5.957 0 10.797 4.8477 10.797 10.797v259.1c0 5.9453-4.8398 10.797-10.797 10.797h-388.65c-5.957 0-10.797-4.8477-10.797-10.797z"/>
  <path d="m514.93 763.23c12.609-12.582 12.66-33.094 0-45.777-12.094-12.082-33.906-12.082-45.777 0-12.691 12.691-12.621 33.199 0 45.777 12.617 12.641 33.117 12.656 45.777 0z"/>
  <path d="m622.89 763.23c12.406-12.387 12.891-32.863 0-45.777-12.094-12.082-33.684-12.082-45.777 0-12.691 12.691-12.621 33.199 0 45.777 12.621 12.641 33.117 12.656 45.777 0z"/>
  <path d="m730.85 763.23c12.609-12.582 12.66-33.094 0-45.777-12.094-12.082-33.684-12.082-45.777 0-12.691 12.691-12.621 33.199 0 45.777 12.617 12.641 33.117 12.656 45.777 0z"/>
 </g>
</svg>
