<svg xmlns="http://www.w3.org/2000/svg" xmlns:xlink="http://www.w3.org/1999/xlink" version="1.1" x="0px" y="0px" viewBox="0 0 98 122.5" enable-background="new 0 0 98 98" xml:space="preserve"><g>
    <path d="M30.6413,30.3713v7.86h5.14v-7.86c0-7.02,5.7-12.72,12.72-12.72c7.01,0,12.72,5.7,12.72,12.72v7.86h5.14v-7.86   c0-9.86-8-17.86-17.86-17.86C38.6313,12.5113,30.6413,20.5113,30.6413,30.3713z"/>
    <path d="M51.9854,2.438c-0.6753-0.0483-1.355-0.0825-2.0386-0.103l-0.0596,1.999c0.6553,0.0195,1.3076,0.0527,1.9556,0.0991   L51.9854,2.438z"/>
    <path d="M60.0469,3.7124c-0.6597-0.1631-1.3242-0.3125-1.9937-0.4473l-0.3955,1.96c0.6411,0.1299,1.2773,0.2725,1.9087,0.4287   L60.0469,3.7124z"/>
    <path d="M47.9282,4.3169l-0.0244-2c-0.6831,0.0088-1.3633,0.0308-2.0396,0.0674l0.1074,1.9971   C46.6206,4.3467,47.2734,4.3247,47.9282,4.3169z"/>
    <path d="M56.042,2.9029c-0.6694-0.1055-1.3442-0.1973-2.0234-0.2754L53.791,4.6148c0.6509,0.0742,1.2974,0.1621,1.9395,0.2637   L56.042,2.9029z"/>
    <path d="M63.9658,4.8604c-0.6426-0.2188-1.292-0.4243-1.9473-0.6162l-0.5625,1.9189c0.627,0.1841,1.249,0.3809,1.8652,0.5908   L63.9658,4.8604z"/>
    <path d="M36.3296,5.94l-0.5273-1.9287c-0.6582,0.1797-1.311,0.374-1.958,0.5806l0.6094,1.9053   C35.0732,6.2984,35.6987,6.1128,36.3296,5.94z"/>
    <path d="M44.0195,4.5298l-0.1914-1.9912c-0.6802,0.0654-1.3564,0.1455-2.0283,0.2393l0.2764,1.9805   C42.7197,4.6685,43.3677,4.5923,44.0195,4.5298z"/>
    <path d="M40.144,5.0699l-0.3604-1.9668c-0.6719,0.123-1.3389,0.2603-2.001,0.4111l0.4453,1.9502   C38.8618,5.3194,39.5005,5.188,40.144,5.0699z"/>
    <path d="M17.6152,16.2217l-1.3438-1.4814C8.9688,21.3604,3.9414,29.9058,1.7329,39.4527l1.9482,0.4512   C5.7974,30.7559,10.6157,22.5669,17.6152,16.2217z"/>
    <path d="M4.1919,62.7242l-1.9258,0.5381c2.2861,8.1797,6.7412,15.6401,12.8838,21.5747   c5.0015,4.8325,11.1006,8.583,17.6382,10.8462l0.6543-1.8896c-6.2642-2.1689-12.1094-5.7632-16.9028-10.395   C10.6523,77.7105,6.3828,70.5616,4.1919,62.7242z"/>
    <path d="M96.2671,55.0557l-1.9902-0.1953c-1.6016,16.3256-11.8751,30.7062-27.0459,37.479l0.8154,1.8262   C83.8648,87.1044,94.5955,72.1034,96.2671,55.0557z"/>
    <path d="M93.0513,38.8189l1.9365-0.498c-3.0977-12.042-11.0049-22.6543-21.6938-29.1152l-1.0342,1.7119   C82.5044,17.1099,90.0825,27.2793,93.0513,38.8189z"/>
    <path d="M90.0791,56.2593l-1.9805-0.2822c-1.2729,8.9434-5.6309,17.2954-12.27,23.5181l1.3672,1.459   C84.1665,74.4214,88.7417,65.6514,90.0791,56.2593z"/>
    <path d="M59.0264,11.7193c4.1943,1.145,8.1587,2.9653,11.7822,5.4092c8.9756,6.0542,15.1997,15.5972,17.0762,26.1821l1.9697-0.3496   c-1.9707-11.1152-8.5054-21.1353-17.9277-27.4907c-3.8047-2.5664-7.9678-4.4775-12.374-5.6807L59.0264,11.7193z"/>
    <path d="M32.9448,13.4615l-0.7803-1.8418c-5.3096,2.2495-10.0313,5.5156-14.0337,9.7075l1.4463,1.3809   C23.3906,18.7149,27.8882,15.6036,32.9448,13.4615z"/>
    <path d="M8.521,37.4244l1.9033,0.6152c0.2983-0.9238,0.6353-1.8491,1.0015-2.7495l-1.8525-0.7529   C9.1885,35.4825,8.8345,36.4541,8.521,37.4244z"/>
    <path d="M7.0688,43.3926l1.9727,0.3281c0.1602-0.9619,0.3574-1.9263,0.5869-2.8657l-1.9434-0.4736   C7.4443,41.3687,7.2368,42.3819,7.0688,43.3926z"/>
    <path d="M14.021,30.0498l-1.7227-1.0166c-0.5181,0.8784-1.0107,1.7876-1.4634,2.7017l1.792,0.8877   C13.0581,31.752,13.5273,30.8863,14.021,30.0498z"/>
    <path d="M6.5059,49.5069l2,0.0381c0.0181-0.9702,0.0723-1.9536,0.1611-2.9229l-1.9917-0.1816   C6.582,47.4571,6.5254,48.4888,6.5059,49.5069z"/>
    <path d="M20.3848,78.7403C15.1587,73.5713,11.46,67.0977,9.689,60.0191l-1.9404,0.4854c1.8599,7.4336,5.7432,14.2314,11.23,19.6577   L20.3848,78.7403z"/>
    <path d="M48.4985,90.3135c-0.563,0-1.1235-0.0117-1.6807-0.0352l-0.084,1.998c0.5854,0.0244,1.1733,0.0371,1.7646,0.0371   l0.2827-0.001l-0.0107-2L48.4985,90.3135z"/>
    <path d="M38.6304,91.1426c0.6616,0.1597,1.3296,0.3042,2.0029,0.4321l0.374-1.9648c-0.6411-0.1221-1.2769-0.2588-1.9063-0.4116   L38.6304,91.1426z"/>
    <path d="M42.6548,91.9082c0.6738,0.0947,1.3525,0.1729,2.0361,0.2344l0.1797-1.9922c-0.6504-0.0586-1.2969-0.1328-1.9375-0.2227   L42.6548,91.9082z"/>
    <path d="M54.5986,89.8496l0.3037,1.9766c0.6772-0.104,1.3496-0.2246,2.0161-0.3604l-0.3994-1.96   C55.8838,89.6358,55.2437,89.7505,54.5986,89.8496z"/>
    <path d="M58.4185,89.0694l0.498,1.9365c0.6631-0.1704,1.3198-0.356,1.9707-0.5566l-0.5908-1.9111   C59.6768,88.73,59.0503,88.9068,58.4185,89.0694z"/>
    <path d="M50.7202,90.2525l0.1094,1.9971c0.6846-0.0376,1.3652-0.0918,2.041-0.1616l-0.2061-1.9893   C52.021,90.1656,51.3726,90.2168,50.7202,90.2525z"/>
    <path d="M74.2671,25.1973c-0.7134-0.7314-1.4688-1.4434-2.2451-2.1147l-1.3086,1.5127c0.7339,0.6348,1.4473,1.3071,2.1211,1.9985   L74.2671,25.1973z"/>
    <path d="M78.0771,33.5606c0.479,0.8413,0.9263,1.7134,1.3296,2.5908l1.8174-0.8359c-0.4277-0.9292-0.9014-1.8525-1.4087-2.7441   L78.0771,33.5606z"/>
    <path d="M74.7783,28.7642c0.6133,0.7471,1.2031,1.5303,1.752,2.3281l1.6475-1.1338c-0.5811-0.8442-1.2046-1.6733-1.8545-2.4639   L74.7783,28.7642z"/>
    <path d="M81.9956,44.4688c0.1655,0.9521,0.292,1.9243,0.3755,2.8887l1.9922-0.1729c-0.0884-1.021-0.2217-2.0498-0.397-3.0586   L81.9956,44.4688z"/>
    <path d="M80.5088,38.8467c0.3281,0.9126,0.6191,1.8477,0.8647,2.7788l1.9336-0.5107c-0.2603-0.9868-0.5688-1.9775-0.9165-2.9448   L80.5088,38.8467z"/>
    <rect x="55.2305" y="50.5255" width="2.2822" height="3.4326"/>
    <path d="M27.9982,40.2323c-2.0859,0-3.7767,1.6909-3.7767,3.7768v36.3313c0,2.0859,1.6909,3.7767,3.7767,3.7767h41.001   c2.0858,0,3.7767-1.6909,3.7767-3.7767V44.0091c0-2.0859-1.6909-3.7768-3.7767-3.7768H27.9982z M34.1157,74.8243h-2v-5.4326h2   V74.8243z M34.1157,64.8912h-2V59.459h2V64.8912z M34.1157,54.958h-2v-5.4321h2V54.958z M44.1299,75.8243h-6.2822v-7.4326h6.2822   V75.8243z M44.1299,65.8912h-6.2822v-7.4326h6.2822V65.8912z M44.1299,55.958h-6.2822v-7.4326h6.2822V55.958z M49.4985,74.8243h-2   v-5.4326h2V74.8243z M49.4985,64.8912h-2V59.459h2V64.8912z M49.4985,54.958h-2v-5.4321h2V54.958z M59.5127,75.8243h-6.2822   v-7.4326h6.2822V75.8243z M59.5127,65.8912h-6.2822v-7.4326h6.2822V65.8912z M59.5127,55.958h-6.2822v-7.4326h6.2822V55.958z    M64.8813,74.8243h-2v-5.4326h2V74.8243z M64.8813,64.8912h-2V59.459h2V64.8912z M64.8813,54.958h-2v-5.4321h2V54.958z"/>
    <rect x="55.2305" y="70.3917" width="2.2822" height="3.4326"/>
    <rect x="55.2305" y="60.4586" width="2.2822" height="3.4326"/>
    <rect x="39.8477" y="60.4586" width="2.2822" height="3.4326"/>
    <rect x="39.8477" y="70.3917" width="2.2822" height="3.4326"/><rect x="39.8477" y="50.5255" width="2.2822" height="3.4326"/>
    <path d="M14.4985,50.3135c0-2.5522,0.2852-5.0977,0.8481-7.5654l-1.9502-0.4443c-0.5957,2.6133-0.8979,5.3081-0.8979,8.0098   c0,7.7773,2.4512,15.187,7.0879,21.4277l1.6055-1.1924C16.813,64.6553,14.4985,57.6578,14.4985,50.3135z"/></g>
    <text x="0" y="113" fill="#000000" font-size="5px" font-weight="bold" font-family="'Helvetica Neue', Helvetica, Arial-Unicode, Arial, Sans-serif">Created by ProSymbols</text><text x="0" y="118" fill="#000000" font-size="5px" font-weight="bold" font-family="'Helvetica Neue', Helvetica, Arial-Unicode, Arial, Sans-serif">from the Noun Project</text></svg>