<?xml version="1.0" encoding="UTF-8"?>
<svg width="1200pt" height="1200pt" version="1.1" viewBox="0 0 1200 1200" xmlns="http://www.w3.org/2000/svg">
 <g>
  <rect width="1200" height="1200" fill="transparent"/>
  <path d="m772.74 254.53c-95.242 0-172.73 77.492-172.73 172.73v107.96h-269.9c-41.664 0-75.57 33.906-75.57 75.57v259.1c0 41.664 33.906 75.57 75.57 75.57h367.06c41.664 0 75.57-33.906 75.57-75.57v-259.1c0-41.664-33.906-75.57-75.57-75.57h-32.387v-107.96c0-59.523 48.434-107.96 107.96-107.96 59.523 0 107.96 48.434 107.96 107.96l-0.007813 75.574c0 17.879 14.496 32.387 32.387 32.387s32.387-14.508 32.387-32.387l0.003906-75.574c0-95.242-77.492-172.73-172.73-172.73zm-64.777 356.27v259.1c0 5.9453-4.8398 10.797-10.797 10.797h-367.06c-5.957 0-10.797-4.8477-10.797-10.797v-259.1c0-5.9453 4.8398-10.797 10.797-10.797h367.06c5.9531 0 10.793 4.8516 10.793 10.797z"/>
  <path d="m382.68 717.45c-12.887 12.91-12.41 33.391 0 45.777 12.457 12.477 33.176 12.836 45.988 0 12.121-12.539 12.598-32.699 0-45.777-12.094-12.082-33.898-12.082-45.988 0z"/>
  <path d="m490.64 717.45c-12.887 13.375-12.395 33.406 0 45.777 12.457 12.477 33.176 12.836 45.988 0 6.0508-6.0312 9.5-14.465 9.5-22.879 0-8.4336-3.4492-16.848-9.5-22.898-12.094-12.082-33.895-12.082-45.988 0z"/>
  <path d="m598.6 717.45c-12.594 13.07-12.129 33.23 0 45.777 12.586 12.609 32.793 12.75 45.988 0 12.555-12.512 12.793-33.211-0.21094-45.777-12.094-12.082-33.688-12.082-45.777 0z"/>
 </g>
</svg>
