<?xml version="1.0" encoding="UTF-8"?>
<svg viewBox="0 0 1200 1200" xmlns="http://www.w3.org/2000/svg">
 <rect x="-120" y="-120" width="1440" height="1440" fill="#fff"/>
 <path d="m481.92 930.62h-70.848c-18.805 0-36.812-7.4688-50.094-20.754-13.285-13.285-20.754-31.293-20.754-50.094v-273.59l-30.523 30.523c-9.2109 9.2109-24.207 9.2109-33.418 0-9.2109-9.2109-9.2109-24.207 0-33.418l273.62-273.59c13.285-13.285 31.293-20.754 50.094-20.754 18.805 0 36.812 7.4688 50.094 20.754l273.62 273.59c9.2109 9.2109 9.2109 24.207 0 33.418-9.2109 9.2109-24.207 9.2109-33.418 0l-30.523-30.523v273.59c0 18.805-7.4688 36.812-20.754 50.094-13.285 13.285-31.293 20.754-50.094 20.754h-70.848v-188.93c0-39.113-31.703-70.848-70.848-70.848h-94.465c-39.145 0-70.848 31.734-70.848 70.848zm188.93 0h-141.7v-188.93c0-13.047 10.566-23.617 23.617-23.617h94.465c13.047 0 23.617 10.566 23.617 23.617z" fill-rule="evenodd"/>
</svg>
