<?xml version="1.0" encoding="UTF-8"?>
<svg width="1200pt" height="1200pt" version="1.1" viewBox="0 0 1200 1200" xmlns="http://www.w3.org/2000/svg">
 <g>
  <rect width="1200" height="1200" fill="transparent"/>
  <path d="m377.11 653.51h-17.426c-0.37109 0-0.71875 0.16016-0.97656 0.40625-0.25781 0.25-0.41406 0.58984-0.41406 0.96094v70.598c0 0.37109 0.16016 0.71094 0.41406 0.96094 0.25781 0.25 0.60547 0.40625 0.97656 0.40625h17.426c0.37109 0 0.71875-0.16016 0.97656-0.40625 0.25781-0.25 0.41406-0.58984 0.41406-0.96094v-70.598c0-0.37109-0.16016-0.71094-0.41406-0.96094-0.25781-0.25-0.60547-0.40625-0.97656-0.40625zm0-179.36h-17.426c-0.37109 0-0.71875 0.16016-0.97656 0.40625-0.25781 0.25-0.41406 0.58984-0.41406 0.96094v70.598c0 0.37109 0.16016 0.71094 0.41406 0.96094 0.25781 0.25 0.60547 0.40625 0.97656 0.40625h17.426c0.37109 0 0.71875-0.16016 0.97656-0.40625 0.25781-0.25 0.41406-0.58984 0.41406-0.96094v-70.598c0-0.37109-0.16016-0.71094-0.41406-0.96094-0.25781-0.25-0.60547-0.40625-0.97656-0.40625zm-0.42188 342.82v-73.781h0.42188c4.9492 0 9.4453-1.9883 12.695-5.1992 3.25-3.2031 5.2734-7.6328 5.2734-12.516v-70.598c0-4.8828-2.0195-9.3086-5.2734-12.516-3.25-3.2031-7.7461-5.1992-12.695-5.1992h-0.42188v-73.336h0.42188c4.9492 0 9.4453-1.9883 12.695-5.1992 3.25-3.2031 5.2734-7.6328 5.2734-12.516v-70.598c0-4.8828-2.0195-9.3086-5.2734-12.516-3.25-3.2031-7.7461-5.1992-12.695-5.1992h-0.42188v-73.781l208.01-38.012v508.93l-208.01-37.977zm248.72-474.97h-23.707c-0.10547 0-0.21094 0.046875-0.28906 0.12891-0.074218 0.074219-0.12891 0.17188-0.12891 0.28125v515.18c0 0.11328 0.054688 0.21094 0.12891 0.28906 0.082032 0.074219 0.17969 0.12891 0.28906 0.12891h23.707c0.10547 0 0.21094-0.054687 0.28906-0.12891 0.082031-0.074218 0.12891-0.17969 0.12891-0.28906l-0.003906-515.17c0-0.10547-0.054688-0.20312-0.12891-0.28906-0.082031-0.074218-0.17969-0.12891-0.28906-0.12891zm17.004 43.422v34.348h200.33c4.5781 0 8.2891 3.6562 8.2891 8.168v345.09c0 4.5117-3.7109 8.168-8.2891 8.168h-200.33v34.348h221.56c4.8828 0 9.3242-2.0391 12.551-5.3281 3.3086-3.3789 5.3672-8.0469 5.3672-13.219v-393.03c0-5.1602-2.0547-9.8398-5.3672-13.219-3.2266-3.2891-7.6719-5.3281-12.551-5.3281zm-180.38 188.84c-2.9258-4.8594-6.543-7.8594-10.156-7.8594s-7.2305 3-10.156 7.8594c-3.7031 6.1445-5.9922 14.812-5.9922 24.531s2.2891 18.387 5.9922 24.531c2.9258 4.8594 6.543 7.8594 10.156 7.8594s7.2305-3 10.156-7.8594c3.7031-6.1445 5.9922-14.812 5.9922-24.531s-2.2891-18.387-5.9922-24.531zm-1.6641 85.594-0.054688-13.875c6.3242-2.3945 11.805-7.4531 15.961-14.352 4.0352-6.6953 6.8633-15.289 7.8906-24.801l4.4883-0.015625c4.5664 0 8.2617-3.6406 8.2617-8.1406 0-4.4961-3.6953-8.1406-8.2617-8.1406l-4.5117 0.015625c-1.0508-9.4219-3.8633-17.941-7.8672-24.582-4.2383-7.0352-9.8555-12.152-16.332-14.488l-0.054687-13.738c0-4.4961-3.6953-8.1406-8.2617-8.1406s-8.2617 3.6406-8.2617 8.1406l0.054688 13.875c-6.3164 2.3945-11.805 7.4531-15.961 14.352-4.0352 6.6953-6.8633 15.289-7.8906 24.801l-4.4883 0.015625c-4.5664 0-8.2617 3.6406-8.2617 8.1406 0 4.4961 3.6953 8.1406 8.2617 8.1406l4.5117-0.015625c1.0508 9.4219 3.8711 17.941 7.8672 24.582 4.2383 7.0352 9.8555 12.152 16.332 14.488l0.054688 13.738c0 4.4961 3.6953 8.1406 8.2617 8.1406 4.5664 0 8.2617-3.6406 8.2617-8.1406zm88.797-132.07h-5.8047c-1.1719 0-2.2461 0.47656-3.0234 1.2461-0.77734 0.76953-1.2695 1.8281-1.2695 2.9844v124.02c0 1.1562 0.48438 2.2148 1.2695 2.9844 0.77734 0.76953 1.8516 1.2461 3.0234 1.2461h5.8047c1.1719 0 2.2461-0.47656 3.0234-1.2461 0.77734-0.76953 1.2695-1.8281 1.2695-2.9844v-124.02c0-1.1562-0.48438-2.2148-1.2695-2.9844-0.78516-0.76953-1.8516-1.2461-3.0234-1.2461zm-5.8047-16.34c-5.75 0-10.973 2.3125-14.75 6.0391-3.7773 3.7266-6.1289 8.8711-6.1289 14.539v124.02c0 5.668 2.3438 10.812 6.1289 14.539 3.7773 3.7266 9 6.0391 14.75 6.0391h5.8047c5.75 0 10.973-2.3125 14.75-6.0391 3.7773-3.7266 6.1289-8.8711 6.1289-14.539v-124.02c0-5.668-2.3438-10.812-6.1289-14.539-3.7773-3.7266-9-6.0391-14.75-6.0391zm247.77 228.74v24.68h-105.39v-24.68zm-20.828-41.02v24.68h-105.39v-24.68zm26.141-41.02v24.68h-105.39v-24.68zm-25.172-41.02v24.68h-105.39v-24.68zm29.527-41.02v24.68h-105.39v-24.68zm-113.68-16.34c-4.5781 0-8.2891 3.6562-8.2891 8.168v32.852h-21.234c-4.5781 0-8.2891 3.6562-8.2891 8.168v41.02c0 4.5117 3.7109 8.168 8.2891 8.168h16.883v24.68h-17.852c-4.5781 0-8.2891 3.6562-8.2891 8.168v41.02c0 4.5117 3.7109 8.168 8.2891 8.168h12.539v24.68h-26.746v-328.73h192.04v328.75h-26.746v-32.852c0-4.5117-3.7109-8.168-8.2891-8.168h-12.539v-24.68h17.852c4.5781 0 8.2891-3.6562 8.2891-8.168v-41.02c0-4.5117-3.7109-8.168-8.2891-8.168h-16.883v-24.68h21.234c4.5781 0 8.2891-3.6562 8.2891-8.168v-41.02c0-4.5117-3.7109-8.168-8.2891-8.168h-121.97zm-327-101.95h-0.42188c-4.9492 0-9.4453 1.9883-12.695 5.1992-3.25 3.2031-5.2734 7.6328-5.2734 12.516v70.598c0 4.8828 2.0195 9.3086 5.2734 12.516 3.2578 3.2031 7.7461 5.1992 12.695 5.1992h0.42188v73.336h-0.42188c-4.9492 0-9.4453 1.9883-12.695 5.1992-3.25 3.2109-5.2734 7.6328-5.2734 12.516v70.598c0 4.8828 2.0195 9.3086 5.2734 12.516 3.2578 3.2031 7.7461 5.1992 12.695 5.1992h0.42188v72.383h-24.078c-4.8828 0-9.3242-2.0391-12.551-5.3281-3.3086-3.3789-5.3672-8.0469-5.3672-13.219v-393.07c0-5.1602 2.0547-9.8398 5.3672-13.219 3.2266-3.2891 7.6719-5.3281 12.551-5.3281h24.078z" fill-rule="evenodd"/>
 </g>
</svg>
