<?xml version="1.0" encoding="UTF-8"?>
<svg width="1200pt" height="1200pt" version="1.1" viewBox="0 0 1200 1200" xmlns="http://www.w3.org/2000/svg">
 <g>
  <rect width="1200" height="1200" fill="#fff"/>
  <path d="m600 269.38c-87.684 0-171.78 34.836-233.79 96.84s-96.84 146.1-96.84 233.79c0 87.688 34.836 171.79 96.84 233.79 62.004 62.004 146.1 96.836 233.79 96.836 87.688 0 171.79-34.832 233.79-96.836 62.004-62.004 96.836-146.1 96.836-233.79-0.09375-87.656-34.957-171.7-96.941-233.68-61.98-61.98-146.02-96.848-233.68-96.941zm0 614.02c-75.16 0-147.24-29.855-200.39-83.004-53.148-53.145-83.004-125.23-83.004-200.39 0-75.16 29.855-147.24 83.004-200.39 53.145-53.148 125.23-83.004 200.39-83.004 75.164 0 147.25 29.855 200.39 83.004 53.148 53.145 83.004 125.23 83.004 200.39-0.082031 75.137-29.965 147.17-83.094 200.3-53.129 53.129-125.16 83.012-200.3 83.094z"/>
  <path d="m616.86 436.2c-22.074-4.0117-44.855-0.039063-64.266 11.211-19.41 11.254-34.184 29.043-41.676 50.191-2.2461 5.9375-2.0117 12.527 0.65625 18.285 2.6641 5.7578 7.5391 10.203 13.516 12.328 5.9805 2.1289 12.562 1.7578 18.27-1.0234 5.7031-2.7852 10.047-7.7461 12.051-13.766 5.3164-15.09 17.91-26.457 33.461-30.215 15.551-3.7539 31.945 0.61719 43.559 11.617 11.617 11 16.879 27.129 13.977 42.863-2.9023 15.73-13.566 28.926-28.344 35.059-12.555 5.4258-23.219 14.453-30.637 25.941-7.4219 11.492-11.266 24.926-11.043 38.602v9.9414c0 8.4375 4.5 16.234 11.809 20.453 7.3047 4.2188 16.309 4.2188 23.613 0 7.3086-4.2188 11.809-12.016 11.809-20.453v-9.918c-0.16016-4.3242 0.9375-8.5977 3.1602-12.309 2.2227-3.707 5.4727-6.6953 9.3555-8.5938 19.988-8.1719 36.551-22.98 46.898-41.93 10.348-18.953 13.852-40.891 9.9219-62.121-3.4805-18.906-12.617-36.312-26.203-49.91-13.59-13.602-30.984-22.754-49.887-26.254z"/>
  <path d="m600 694.46c-6.2617 0-12.27 2.4883-16.699 6.918-4.4258 4.4297-6.9141 10.438-6.9141 16.699v23.617c0 8.4375 4.5 16.23 11.809 20.449 7.3047 4.2188 16.309 4.2188 23.613 0 7.3086-4.2188 11.809-12.012 11.809-20.449v-23.617c0-6.2617-2.4883-12.27-6.918-16.699-4.4258-4.4297-10.434-6.918-16.699-6.918z"/>
 </g>
</svg>
