<?xml version="1.0" encoding="UTF-8"?>
<svg viewBox="0 0 1200 1200" xmlns="http://www.w3.org/2000/svg">
 <rect x="-120" y="-120" width="1440" height="1440" fill="transparent"/>
 <path d="m641.68 733.38c3.3242-8.1758 5.0195-17.215 5.0195-26.875 0-20.156-7.9648-36.086-24.336-48.691-16.762-12.898-39.281-19.438-66.918-19.438-29.941 0-54.156 7.5664-71.945 22.484-17.637 14.797-26.215 33.645-26.215 57.625 0 14.156 3.4766 25.363 10.34 33.312 6.6719 7.7227 15.688 11.48 27.555 11.48 10.227 0 18.121-2.8477 24.152-8.7148 5.9688-5.8125 8.8711-13.422 8.8711-23.293 0-7.7852-1.8984-13.535-5.8047-17.586-3.8242-3.9766-9.2109-5.9023-16.473-5.9023-2.3203 0-4.6719 0.17188-6.9922 0.51953-2.4023 0.36328-4.9805 0.91406-7.6484 1.6484l-11.836 3.2344 2.4414-12.023c2.2539-11.125 7.5352-19.938 15.68-26.199 8.0195-6.1523 18.07-9.2734 29.867-9.2734 13.73 0 24.984 4.1172 33.441 12.258 8.5391 8.2148 12.871 19.059 12.871 32.23 0 14.855-10.211 38.148-31.211 71.211-2.6055 3.9883-4.4883 6.8789-5.707 8.7578-3.4102 5.3594-5.9336 10.566-7.4648 15.434-1.5195 4.793-2.2812 9.7578-2.2812 14.766 0 0.71875 0.039062 1.5195 0.12109 2.3789h34.52c1.5781-8.9609 6.0625-17.402 13.27-25.285l0.023437-0.023438c3.25-3.543 6.9961-6.9922 11.375-10.301l0.83203-0.62109c1.7383-1.3359 4.7383-3.5078 8.9258-6.4375 13.051-9.3945 23.41-17.812 30.695-24.977 6.5508-6.3086 11.516-13.602 14.828-21.703z"/>
 <path d="m410.17 535.61c31.18 0 56.996 23.449 60.73 53.633h73.539v-35.004c-30.191-3.7422-53.633-29.578-53.633-60.797s23.449-56.996 53.633-60.73v-35.004h-252.71c-8.7266 0-15.832 7.1055-15.832 15.832v175.71h73.539c3.7344-30.191 29.539-53.633 60.73-53.633zm-104.04 15.906c0 4.1719-3.3867 7.5586-7.5586 7.5586-4.1719 0-7.5586-3.3867-7.5586-7.5586v-23.805c0-4.1719 3.3867-7.5586 7.5586-7.5586 4.1719 0 7.5586 3.3867 7.5586 7.5586zm0-47.02c0 4.1719-3.3867 7.5586-7.5586 7.5586-4.1719 0-7.5586-3.3867-7.5586-7.5586v-47.77c0-4.1719 3.3867-7.5586 7.5586-7.5586 4.1719 0 7.5586 3.3867 7.5586 7.5586z"/>
 <path d="m543.27 856.1c-8.668 0-15.711 2.8477-21.516 8.7148-5.8281 5.8867-8.6602 13.043-8.6602 21.879 0 8.9688 2.832 16.188 8.6602 22.074 5.8125 5.8633 12.848 8.7148 21.516 8.7148 8.8203 0 16-2.8945 21.945-8.8438 5.9492-5.9492 8.8438-13.125 8.8438-21.945 0-8.6758-2.8945-15.793-8.8438-21.742-5.9492-5.9492-13.133-8.8438-21.945-8.8438z"/>
 <path d="m828.09 780.07v-175.71h-80.633c-4.1797 0-7.5586-3.3867-7.5586-7.5586 0-25.406-20.668-46.074-46.082-46.074-25.414 0-46.074 20.668-46.074 46.074 0 4.1719-3.3789 7.5586-7.5586 7.5586h-176.38c-4.1719 0-7.5586-3.3867-7.5586-7.5586 0-25.406-20.668-46.074-46.082-46.074-25.414 0-46.074 20.668-46.074 46.074 0 4.1719-3.3867 7.5586-7.5586 7.5586h-80.629v175.71c0 8.7266 7.1055 15.832 15.832 15.832h225.27c1.8594-4.5586 4.0977-9.1914 7.1094-13.922 1.2461-1.9336 3.1523-4.8594 5.7266-8.8047 23.789-37.461 28.801-54.957 28.801-63.027 0-9.0234-2.6914-16.008-8.2383-21.332-5.6211-5.4023-13.133-8.0352-22.965-8.0352-8.5078 0-15.273 2.0117-20.66 6.1445-2.1914 1.6836-4.043 3.6406-5.5625 5.9023 13.09-1.0273 24.418 2.4023 32.074 10.352 6.6484 6.9062 10.027 16.355 10.027 28.066 0 13.965-4.5273 25.453-13.453 34.129-8.8555 8.6211-20.531 13-34.688 13-16.301 0-29.422-5.6211-38.996-16.715-9.2969-10.77-14.012-25.301-14.012-43.18 0-28.324 10.641-51.609 31.617-69.199 20.586-17.262 48.055-26.012 81.656-26.012 31.051 0 56.672 7.5938 76.129 22.574 20.059 15.438 30.23 35.852 30.23 60.668 0 11.621-2.0625 22.582-6.1367 32.578-4.1055 10.074-10.246 19.098-18.281 26.836-7.793 7.6484-18.734 16.559-32.488 26.457-1.9336 1.3594-3.582 2.5234-4.9727 3.5273h212.32c8.7266 0 15.84-7.1055 15.84-15.832z"/>
 <path d="m921.93 434.94c4.4219-7.5273 1.8906-17.254-5.6367-21.676l-217.92-127.95-21.32 36.305c-1.0117 1.7305-2.6758 2.9844-4.6094 3.4844-1.957 0.5-4.0039 0.21875-5.7344-0.79297-10.594-6.2344-23.012-7.957-34.922-4.8594-11.918 3.0977-21.902 10.648-28.137 21.258-6.25 10.641-7.9883 23.062-4.8906 34.988 3.0898 11.918 10.641 21.906 21.25 28.145 1.7305 1.0117 2.9922 2.6758 3.4922 4.6094 0.5 1.9414 0.21875 4.0039-0.79297 5.7266l-21.32 36.305 63.418 37.234c18.508-24.152 52.664-31.285 79.523-15.508 26.895 15.793 37.281 49.074 25.211 77l63.418 37.234 88.969-151.52z"/>
</svg>
