<?xml version="1.0" encoding="UTF-8"?>
<svg width="1200pt" height="1200pt" version="1.1" viewBox="0 0 1200 1200" xmlns="http://www.w3.org/2000/svg">
 <g>
  <rect width="1200" height="1200" fill="transparent"/>
  <path d="m407.85 726c0 7.8125-3.1055 15.309-8.6289 20.832-5.5273 5.5273-13.02 8.6289-20.836 8.6289-7.8125 0-15.305-3.1016-20.832-8.6289-5.5234-5.5234-8.6289-13.02-8.6289-20.832s3.1055-15.309 8.6289-20.832c5.5273-5.5273 13.02-8.6289 20.832-8.6289 7.8125 0.007813 15.301 3.1133 20.824 8.6367 5.5234 5.5234 8.6328 13.012 8.6406 20.824zm306.3-60.875c-26.82 26.984-64.262 40.629-102.16 37.223-37.891-3.4023-72.301-23.496-93.887-54.828-21.582-31.332-28.094-70.645-17.77-107.27 10.32-36.617 36.414-66.738 71.184-82.18 0.48437-0.26562 0.98828-0.5 1.5039-0.69922 36.695-15.887 78.711-13.688 113.55 5.9453 34.84 19.633 58.48 54.438 63.895 94.055 5.4141 39.621-8.0234 79.492-36.316 107.75zm-16.691-164.18c-14.895-14.887-33.949-24.91-54.652-28.746-20.703-3.8359-42.086-1.3086-61.32 7.2539-6.168 43.043-27.75 82.383-60.738 110.71 4.9688 33.066 25.504 61.746 55.207 77.098 29.707 15.355 64.977 15.523 94.828 0.45312 29.852-15.074 50.656-43.555 55.938-76.574s-5.6016-66.57-29.262-90.199zm248.38 344.73-51.129 51.129c-5.418 5.3672-12.738 8.3828-20.367 8.3828s-14.949-3.0156-20.371-8.3828l-111.82-111.82v-0.003907c-5.3867-5.4102-8.4141-12.734-8.4141-20.367 0-7.6367 3.0273-14.961 8.4141-20.371l4.7227-4.6055-22.125-22.125c-35.094 24.871-78.117 35.945-120.86 31.109-42.738-4.8359-82.199-25.242-110.85-57.324-28.648-32.086-44.477-73.594-44.465-116.61 0.039062-10.367 0.99219-20.711 2.8438-30.91-8.7969 5.6953-18.223 10.359-28.09 13.895-4.4609 1.4336-8.3555 4.2344-11.133 8.0078-2.7773 3.7734-4.293 8.3281-4.3359 13.012v53.609c0 10.547-5.6289 20.289-14.762 25.562-9.1328 5.2734-20.387 5.2734-29.52 0-9.1328-5.2734-14.758-15.016-14.758-25.562v-53.609c0.13281-16.891 5.4805-33.328 15.305-47.066 9.8281-13.734 23.66-24.105 39.602-29.688 16.754-5.8086 30.938-17.309 40.086-32.496 9.1484-15.191 12.68-33.105 9.9805-50.633-2.7422-17.16-11.195-32.895-23.988-44.656-12.789-11.766-29.176-18.871-46.508-20.168-18.121-1.207-36.078 4.1016-50.629 14.973-14.551 10.871-24.738 26.582-28.719 44.305-1.7109 7.207-6.0703 13.504-12.215 17.645-6.1406 4.1367-13.617 5.8086-20.938 4.6836-7.3242-1.125-13.949-4.9648-18.566-10.758-5.7461-7.1602-7.8398-16.586-5.668-25.504 6.2305-27.07 20.715-51.535 41.445-70.023 24.773-22.191 56.859-34.48 90.121-34.52 33.262-0.039062 65.371 12.18 90.199 34.316 24.824 22.137 40.629 52.645 44.387 85.695 0.83984 7.9805 0.99609 16.02 0.46875 24.031 32.824-26.73 74.223-40.656 116.53-39.203 42.305 1.4492 82.648 18.184 113.56 47.102 30.914 28.918 50.301 68.059 54.57 110.17 4.2695 42.113-6.8711 84.348-31.352 118.88l22.055 22.055 4.7227-4.7227h0.003906c5.4102-5.3867 12.734-8.4102 20.367-8.4102 7.6367 0 14.961 3.0234 20.371 8.4102l111.82 111.82v0.003906c5.3867 5.4102 8.4141 12.734 8.4141 20.367 0 7.6367-3.0273 14.961-8.4141 20.371zm-214.99-163.85c28.414-28.414 44.379-66.953 44.379-107.14 0-40.188-15.965-78.727-44.379-107.14-28.414-28.414-66.953-44.375-107.14-44.375s-78.723 15.961-107.14 44.375c-28.418 28.414-44.379 66.953-44.379 107.14 0 40.184 15.965 78.723 44.379 107.14 28.438 28.371 66.965 44.305 107.14 44.305 40.168 0 78.699-15.934 107.14-44.305z"/>
 </g>
</svg>
