<?xml version="1.0" encoding="UTF-8"?>
<svg width="1200pt" height="1200pt" version="1.1" viewBox="0 0 1200 1200" xmlns="http://www.w3.org/2000/svg">
 <path d="m863.54 855.91c-30.949 0-56.148 25.148-56.148 56.211 0 20.227 10.664 37.949 26.664 47.852v85.738c0 16.211 13.273 29.477 29.488 29.477 16.211 0 29.488-13.262 29.488-29.477v-85.738c16.102-9.9141 26.762-27.625 26.762-47.852-0.003907-31.062-25.207-56.211-56.254-56.211zm-85.641-72.852h171.26v-42.773c0-46.961-38.586-85.602-85.637-85.602-46.949 0-85.625 38.637-85.625 85.602zm243.52 0h35.449c15.887 0 28.863 12.949 28.863 28.836v307.3c0 15.887-12.961 28.836-28.863 28.836l-386.55 0.003906c-16 0-28.863-12.949-28.863-28.836v-307.3c0-15.887 12.863-28.836 28.863-28.836h35.336v-42.773c0-86.863 71.102-157.9 157.88-157.9 86.887 0 157.89 71.023 157.89 157.9zm-471.24-725.77 128.5 74.176-416.55 240.5v178.23c0 7.1367 3.5508 13.238 9.7266 16.801l96.5 55.738c3.1367 1.8008 6.6875 1.8008 9.7266 0 3.0234-1.7734 4.8125-4.8242 4.8125-8.3984l-0.003906-172.6 416.66-240.5 128.4 74.164c12.336 7.1367 19.449 19.352 19.449 33.613v257.05c-25.414-12.301-53.852-19.188-83.863-19.188-106.44 0-193.43 86.949-193.43 193.44v7.2266c-35.449 0.0625-64.199 28.926-64.199 64.387v152.88l-55.727 32.125c-12.336 7.125-26.449 7.125-38.789 0l-377.77-218.12c-12.336-7.1016-19.352-19.352-19.352-33.586v-436.21c0-14.262 7.0117-26.488 19.352-33.613l377.76-218.1c12.34-7.1133 26.449-7.1133 38.789 0z" fill-rule="evenodd"/>
</svg>
