<?xml version="1.0" encoding="UTF-8"?>
<svg width="512pt" height="512pt" version="1.1" viewBox="0 0 512 512" xmlns="http://www.w3.org/2000/svg">
 <path d="m468.78 53.359h-425.56c-17.262 0-30.422 14.18-30.422 30.359v305.04c0 16.801 13.621 30.359 30.422 30.359h10.141v25.441c0 7.7812 6.3008 14.078 14.078 14.078h13.68c5.3203 0 10.238-3.0195 12.602-7.7812l15.359-30.719h292.84l15.359 30.719c2.3984 4.7617 7.2812 7.7812 12.602 7.7812h14.699c7.7812 0 14.078-6.3008 14.078-14.078v-24.418h10.141c16.801 0 30.422-13.621 30.422-30.422l-0.019531-306c0-16.18-13.16-30.359-30.422-30.359zm0 336.38h-405.3v-54.68h-6.6016c-7.582 0-13.68-6.1406-13.68-13.68v-2.0391c0-7.582 6.1016-13.68 13.68-13.68h6.6016v-137.82h-6.6016c-7.582 0-13.68-6.1016-13.68-13.68l0.019531-2.0391c0-7.5195 6.1016-13.68 13.68-13.68h6.6016l-0.019531-54.723h405.3z"/>
 <path d="m431.76 103.98h-331.26c-9.2617 0-16.801 7.5195-16.801 16.801v17.66h21.82c7.582 0 13.68 6.1406 13.68 13.68v2.0391c0 7.582-6.1016 13.68-13.68 13.68h-21.82v137.84h21.82c7.582 0 13.68 6.1016 13.68 13.68v2.0391c0 7.5195-6.1016 13.68-13.68 13.68h-21.82v17.66c0 9.2617 7.5195 16.801 16.801 16.801h331.26c9.2617 0 16.738-7.5195 16.738-16.801l0.019531-231.96c0-9.2617-7.4805-16.801-16.762-16.801zm-235.52 188.58c-2.4609 2.4609-5.8789 4-9.6797 4-7.5195 0-13.68-6.1406-13.68-13.719 0-3.7812 1.5391-7.1602 4-9.6797 2.5-2.4609 5.8789-4 9.6797-4 3.7812 0 7.2188 1.5391 9.6797 4 2.4609 2.5 4 5.8789 4 9.6797 0 3.7812-1.5391 7.1992-4 9.7188zm0-46.641c-2.4609 2.4609-5.8789 4-9.6797 4-7.5195 0-13.68-6.1016-13.68-13.68 0-3.7812 1.5391-7.2188 4-9.6797 2.5-2.4609 5.8789-4 9.6797-4 3.7812 0 7.2188 1.5391 9.6797 4 2.4609 2.4609 4 5.8789 4 9.6797 0 3.7812-1.5391 7.2188-4 9.6797zm0-46.602c-2.4609 2.4609-5.8789 4-9.6797 4-7.5195 0-13.68-6.1406-13.68-13.68 0-3.7812 1.5391-7.2188 4-9.7188 2.5-2.4609 5.8789-4 9.6797-4 3.7812 0 7.2188 1.5391 9.6797 4 2.4609 2.5 4 5.9414 4 9.7188 0 3.8008-1.5391 7.1797-4 9.6797zm48.641 93.242c-2.4609 2.4609-5.8789 4-9.6797 4-7.5195 0-13.68-6.1406-13.68-13.719 0-3.7812 1.5391-7.1602 4-9.6797 2.5-2.4609 5.8789-4 9.6797-4 3.7812 0 7.2188 1.5391 9.6797 4 2.4609 2.5 4 5.8789 4 9.6797 0 3.7812-1.5391 7.1992-4 9.7188zm0-46.641c-2.4609 2.4609-5.8789 4-9.6797 4-7.5195 0-13.68-6.1016-13.68-13.68 0-3.7812 1.5391-7.2188 4-9.6797 2.5-2.4609 5.8789-4 9.6797-4 3.7812 0 7.2188 1.5391 9.6797 4 2.4609 2.4609 4 5.8789 4 9.6797 0 3.7812-1.5391 7.2188-4 9.6797zm0-46.602c-2.4609 2.4609-5.8789 4-9.6797 4-7.5195 0-13.68-6.1406-13.68-13.68 0-3.7812 1.5391-7.2188 4-9.7188 2.5-2.4609 5.8789-4 9.6797-4 3.7812 0 7.2188 1.5391 9.6797 4 2.4609 2.5 4 5.9414 4 9.7188 0 3.8008-1.5391 7.1797-4 9.6797zm49.68 93.242c-2.4609 2.4609-5.8789 4-9.6797 4-7.582 0-13.68-6.1406-13.68-13.719 0-3.7812 1.5391-7.1602 4-9.6797 2.4609-2.4609 5.8789-4 9.6797-4 3.7812 0 7.2188 1.5391 9.6797 4 2.4609 2.5 4 5.8789 4 9.6797-0.019532 3.7812-1.5391 7.1992-4 9.7188zm0-46.641c-2.4609 2.4609-5.8789 4-9.6797 4-7.582 0-13.68-6.1016-13.68-13.68 0-3.7812 1.5391-7.2188 4-9.6797 2.4609-2.4609 5.8789-4 9.6797-4 3.7812 0 7.2188 1.5391 9.6797 4 2.4609 2.4609 4 5.8789 4 9.6797-0.019532 3.7812-1.5391 7.2188-4 9.6797zm0-46.602c-2.4609 2.4609-5.8789 4-9.6797 4-7.582 0-13.68-6.1406-13.68-13.68 0-3.7812 1.5391-7.2188 4-9.7188 2.4609-2.4609 5.8789-4 9.6797-4 3.7812 0 7.2188 1.5391 9.6797 4 2.4609 2.5 4 5.9414 4 9.7188-0.019532 3.8008-1.5391 7.1797-4 9.6797zm95.32 44.762v32.078c0 4.6992-3.8203 8.5195-8.5195 8.5195h-9.5c-4.6992 0-8.5195-3.8203-8.5195-8.5195v-32.078c-9.5195-5.4219-15.34-16.5-13-28.66 1.9805-10.262 10.18-18.641 20.422-20.801 17.359-3.6602 32.621 9.4609 32.621 26.16 0.019532 9.9805-5.3984 18.68-13.5 23.301z"/>
</svg>
