<?xml version="1.0" encoding="UTF-8"?>
<svg width="1200pt" height="1200pt" version="1.1" viewBox="0 0 1200 1200" xmlns="http://www.w3.org/2000/svg">
 <g>
  <rect width="1200" height="1200" fill="transparent"/>
  <path d="m474.04 388.87c0 2.8047 0.11719 5.5508 0.29688 8.2969l-132.42 46.375c-15.262 5.3438-27.012 17.238-32.473 31.91l-43.719 91.48c-9.832 20.574 2.0078 44.488 22.613 51.809 5.9336 2.0977 11.867 4.2227 17.801 6.3164v176.85c0 22.672 14.406 42.98 35.777 50.449l227.07 79.473c20.102 7.0273 41.977 7.0273 62.082 0l227.07-79.473c21.402-7.5 35.809-27.809 35.809-50.449l-0.03125-176.88c5.9336-2.0977 11.836-4.2227 17.77-6.3164 20.605-7.3203 32.441-31.23 22.613-51.809l-43.777-91.57c-5.4609-14.641-17.211-26.48-32.414-31.793l-132.45-46.348c0.17578-2.7461 0.29688-5.5195 0.29688-8.2969 0-69.402-56.562-125.96-125.96-125.96-69.402 0-125.96 56.562-125.96 125.96zm125.96-97.949c54.258 0 97.977 43.688 97.977 97.977 0 54.258-43.688 97.977-97.977 97.977-54.258 0-97.977-43.688-97.977-97.977 0-54.258 43.688-97.977 97.977-97.977zm-9.6836 36.043-46.762 44.93c-5.5781 5.3711-5.7578 14.23-0.38281 19.809 5.3438 5.5781 14.199 5.7578 19.777 0.38281l23.027-22.168v70.73c0 7.7344 6.2578 13.992 13.992 13.992s13.992-6.2578 13.992-13.992l0.03125-70.73 23.055 22.168c5.5781 5.3711 14.438 5.1953 19.777-0.38281 5.3711-5.5781 5.1953-14.438-0.35547-19.809l-46.789-44.93c-2.5977-2.5078-6.0508-3.8984-9.6836-3.8984-3.6016 0-7.0859 1.3867-9.6836 3.8984zm-110.94 98.121c15.617 51.809 63.793 89.742 120.59 89.742s104.98-37.902 120.59-89.742l128.27 44.871c1.6836 0.58984 3.2461 1.3867 4.7227 2.3008l-253.58 88.797-253.58-88.766c1.5039-0.91406 3.0703-1.7422 4.7539-2.332zm390.14 71.262 39.5 82.66c2.4492 5.1367-0.41406 11.07-6.7305 13.312-76.75 27.219-153.53 54.465-230.32 81.707-6.3477 2.2734-12.457-0.73828-14.582-7.0547-11.777-27.895-23.852-55.941-35.777-83.871zm-539.04 0.03125 124.9 43.688 123.01 43.07c-11.867 27.926-24.031 55.941-35.777 83.84-2.125 6.3164-8.2344 9.3281-14.582 7.0547-76.781-27.246-153.56-54.492-230.32-81.707-6.3164-2.2422-9.1797-8.1758-6.7305-13.312zm3.6328 138.57c61.52 21.816 123.01 43.629 184.53 65.477 20.191 7.1719 42.746-3.5117 50.094-23.5l17.27-40.414v271.02c-2.6289-0.5625-5.2539-1.2695-7.8242-2.1562l-227.04-79.473c-10.273-3.6016-17.031-13.168-17.031-24.031zm531.8 0v166.94c0 10.863-6.7891 20.426-17.062 24.031l-227.07 79.5c-2.5664 0.88672-5.1641 1.5664-7.793 2.125l0.03125-270.96 17.238 40.355c7.3516 19.984 29.902 30.672 50.094 23.5 61.52-21.844 123.04-43.66 184.56-65.477z"/>
 </g>
</svg>
