<?xml version="1.0" encoding="UTF-8"?>
<svg viewBox="0 0 1200 1200" xmlns="http://www.w3.org/2000/svg">
 <defs>
  <clipPath id="b">
   <path d="m746 464h231.86v302h-231.86z"/>
  </clipPath>
  <clipPath id="a">
   <path d="m222.14 464h231.86v302h-231.86z"/>
  </clipPath>
 </defs>
 <rect x="-120" y="-120" width="1440" height="1440" fill="transparent"/>
 <g clip-path="url(#b)">
  <path d="m828.54 464.65-82.273 115.57c54.672 43.277 89.914 110.08 89.914 185.09h141.7c0-122.54-58.656-231.56-149.31-300.66z"/>
 </g>
 <path d="m600 529.15c46.762 0 90.301 13.844 127 37.371l82.305-115.6c-59.957-40.059-131.96-63.469-209.32-63.469-77.371 0-149.34 23.41-209.32 63.469l82.305 115.6c36.723-23.559 80.234-37.371 127-37.371z"/>
 <g clip-path="url(#a)">
  <path d="m453.75 580.23-82.273-115.57c-90.688 69.105-149.34 178.12-149.34 300.66h141.7c0-74.98 35.246-141.79 89.914-185.09z"/>
 </g>
 <path d="m552.77 765.31c0 26.094 21.137 47.23 47.23 47.23s47.23-21.137 47.23-47.23c0-11.809-47.23-212.54-47.23-212.54s-47.23 200.73-47.23 212.54z"/>
 <path d="m572.46 566.73c-97.652 13.492-173.2 97.238-173.2 198.58h23.617c0-86.227 62.051-157.88 143.74-173.58 1.8906-8.0586 3.8359-16.414 5.8438-25.004z"/>
 <path d="m627.55 566.73c2.0078 8.5898 3.957 16.945 5.8438 25.004 81.707 15.703 143.74 87.352 143.74 173.58h23.617c0-101.31-75.543-185.06-173.2-198.58z"/>
</svg>
