<?xml version="1.0" encoding="UTF-8"?>
<svg viewBox="0 0 1200 1200" xmlns="http://www.w3.org/2000/svg">
 <rect x="-120" y="-120" width="1440" height="1440" fill="transparent"/>
 <path d="m748.12 592.45c-4.5352-3.0234-9.8242-2.2656-13.602 0.75391-37.785 27.961-83.883 43.832-134.52 43.832-50.633 0-96.73-16.625-134.52-43.832-3.7773-3.0234-9.8242-3.0234-13.602-0.75391-89.176 57.434-133.76 170.04-133.76 299.26 0 89.176 563.76 89.176 563.76 0-0.003907-129.23-44.59-241.83-133.77-299.26z"/>
 <path d="m768.53 409.56c0 93.074-75.453 168.52-168.53 168.52-93.07 0-168.52-75.449-168.52-168.52s75.453-168.52 168.52-168.52c93.074 0 168.53 75.449 168.53 168.52"/>
</svg>
