<?xml version="1.0" encoding="UTF-8"?>
<svg width="1200pt" height="1200pt" version="1.1" viewBox="0 0 1200 1200" xmlns="http://www.w3.org/2000/svg">
 <defs>
  <clipPath id="c">
   <path d="m472 222.14h254v111.86h-254z"/>
  </clipPath>
  <clipPath id="b">
   <path d="m262 434h676v543.86h-676z"/>
  </clipPath>
  <clipPath id="a">
   <path d="m265 635h670v342.86h-670z"/>
  </clipPath>
 </defs>
 <rect width="1200" height="1200" fill="transparent"/>
 <g clip-path="url(#c)">
  <path d="m709.73 333.11c-3.0703 0-6.4648-0.91406-9.2383-3.0703l-100.16-73.652-103.59 70.23c-6.7617 4.6328-16.324 2.7734-21.254-4.3086-4.6328-7.0859-2.7734-16.648 4.0156-21.254l112.8-76.129c5.5508-3.6914 12.637-3.6914 17.891 0.29687l108.79 80.145c6.7891 4.9297 8.3242 14.789 3.3945 21.578-3.1016 3.9844-7.7031 6.168-12.637 6.168z"/>
 </g>
 <g clip-path="url(#b)">
  <path d="m879.85 977.86h-559.7c-31.734 0-57.328-25.891-57.328-57.328v-408.05c0-4.6328 2.1562-8.9453 5.8438-12.016l69.344-56.09c6.4648-5.2266 16.324-4.3086 21.578 2.1562 5.2266 6.4648 4.3086 16.324-2.1562 21.578l-63.793 51.75v400.68c0 14.496 11.719 26.508 26.508 26.508h559.7c14.496 0 26.508-12.016 26.508-26.508v-401.27l-64.117-57.328c-6.4648-5.5508-6.7891-15.41-1.2383-21.875s15.41-6.7891 21.875-1.2383l69.344 61.961c3.3945 2.7734 5.2266 7.0859 5.2266 11.395v408.05c-0.26562 31.734-25.859 57.625-57.594 57.625z"/>
 </g>
 <g clip-path="url(#a)">
  <path d="m879.85 977.86h-559.7c-23.41 0-44.988-14.789-53.312-36.988-2.1562-5.8438-0.62109-12.637 4.0156-16.945l319-284.49c5.8438-5.2266 14.789-5.2266 20.664 0l319 284.49c4.6328 4.3086 6.4648 11.102 4.0156 16.945-8.6797 22.199-29.934 36.988-53.668 36.988zm-579.12-39.438c4.9297 5.2266 12.016 8.6211 19.426 8.6211h559.7c7.4102 0 14.496-3.3945 19.426-8.6211l-299.28-266.89z"/>
 </g>
 <path d="m698.01 751.64c-4.3086 0-8.3242-1.8594-11.395-5.2266-5.5508-6.4648-5.2266-16.031 1.2383-21.875l220.66-196.93c6.4648-5.5508 16.031-5.2266 21.875 1.2383 5.5508 6.4648 5.2266 16.031-1.2383 21.875l-220.66 196.93c-3.0703 2.7461-6.7891 3.9844-10.48 3.9844z"/>
 <path d="m503.53 753.18c-3.6914 0-7.4102-1.2383-10.184-4.0156l-222.23-198.5c-6.4648-5.5508-6.7891-15.41-1.2383-21.875 5.5508-6.4648 15.41-6.7891 21.875-1.2383l222.23 198.5c6.4648 5.5508 6.7891 15.41 1.2383 21.875-3.3672 3.7188-7.6758 5.2539-11.691 5.2539z"/>
 <path d="m848.41 616.95c-8.6211 0-15.41-6.7891-15.41-15.41v-267.21h-466v267.21c0 8.6211-6.7891 15.41-15.41 15.41s-15.41-6.7891-15.41-15.41v-282.62c0-8.6211 6.7891-15.41 15.41-15.41h496.82c8.6211 0 15.41 6.7891 15.41 15.41v282.62c0 8.3242-6.7891 15.41-15.41 15.41z"/>
 <path d="m426.78 379.34h329.77v30.82h-329.77z"/>
 <path d="m426.78 435.43h329.77v30.82h-329.77z"/>
 <path d="m426.78 491.81h329.77v30.82h-329.77z"/>
 <path d="m426.78 547.93h329.77v30.82h-329.77z"/>
 <path d="m426.78 604.31h329.77v30.82h-329.77z"/>
</svg>
