<?xml version="1.0" encoding="UTF-8"?>
<svg width="1200pt" height="1200pt" version="1.1" viewBox="0 0 1200 1200" xmlns="http://www.w3.org/2000/svg">
 <defs>
  <clipPath id="a">
   <path d="m222.14 272h755.71v656h-755.71z"/>
  </clipPath>
 </defs>
 <rect width="1200" height="1200" fill="transparent"/>
 <g clip-path="url(#a)">
  <path d="m977.86 272.53h-755.71v604.57h25.191v50.383h125.95v-50.383h453.43v50.383h125.95v-50.383h25.191zm-629.76 629.76h-75.57v-25.191h75.57zm579.38 0h-75.57v-25.191h75.57zm25.191-50.383h-705.33v-554.19h705.33z"/>
 </g>
 <path d="m297.84 826.71h604.32c13.977 0 25.312-11.336 25.312-25.316v-37.66c6.9258 0 12.594-5.668 12.594-12.594s-5.668-12.594-12.594-12.594v-12.594c6.9258 0 12.594-5.668 12.594-12.594s-5.668-12.594-12.594-12.594v-251.91c6.9258 0 12.594-5.668 12.594-12.594s-5.668-12.594-12.594-12.594v-12.594c6.9258 0 12.594-5.668 12.594-12.594s-5.668-12.594-12.594-12.594v-37.668c0-13.98-11.336-25.316-25.316-25.316h-604.32c-13.984 0-25.316 11.336-25.316 25.316v453.18c0 13.98 11.332 25.316 25.316 25.316zm0-478.62 604.45 0.125v37.66h-12.594c-6.9258 0-12.594 5.668-12.594 12.594 0 6.9258 5.668 12.594 12.594 12.594h12.594v12.594h-12.594c-6.9258 0-12.594 5.668-12.594 12.594 0 6.9258 5.668 12.594 12.594 12.594h12.594v251.91h-12.594c-6.9258 0-12.594 5.668-12.594 12.594 0 6.9258 5.668 12.594 12.594 12.594h12.594v12.594h-12.594c-6.9258 0-12.594 5.668-12.594 12.594 0 6.9258 5.668 12.594 12.594 12.594h12.594v37.785l-604.57-0.11328z"/>
 <path d="m795.36 468.38c-0.125-0.125-0.125-0.25-0.25-0.37891-0.125-0.125-0.25-0.125-0.37891-0.25-27.461-27.207-64.992-44.086-106.56-44.086-41.562 0-79.098 16.879-106.43 43.957-0.125 0.125-0.25 0.125-0.37891 0.25-0.125 0.125-0.125 0.25-0.25 0.37891-27.207 27.461-44.082 64.992-44.082 106.56 0 41.562 16.879 79.098 43.957 106.43 0.125 0.125 0.125 0.25 0.25 0.37891 0.125 0.125 0.25 0.125 0.37891 0.25 27.457 27.207 64.992 44.082 106.55 44.082s79.098-16.879 106.43-43.957c0.125-0.125 0.25-0.125 0.37891-0.25 0.125-0.125 0.125-0.25 0.25-0.37891 27.207-27.457 44.086-64.992 44.086-106.55 0-41.566-16.879-79.098-43.957-106.43zm6.1719 119.02h11.965c-2.5195 25.316-12.594 48.367-27.836 67.008l-8.4375-8.4375c-4.9141-4.9141-12.848-4.9141-17.758 0-4.9141 4.9141-4.9141 12.848 0 17.758l8.4375 8.4375c-18.641 15.242-41.816 25.316-67.008 27.836v-11.84c0-6.9258-5.668-12.594-12.594-12.594s-12.594 5.668-12.594 12.594v11.965c-25.316-2.5195-48.367-12.594-67.008-27.836l8.4375-8.4375c4.9141-4.9141 4.9141-12.848 0-17.758-4.9141-4.9141-12.848-4.9141-17.758 0l-8.4375 8.4375c-15.242-18.641-25.316-41.816-27.836-67.008h11.711c6.9258 0 12.594-5.668 12.594-12.594s-5.668-12.594-12.594-12.594h-11.965c2.5195-25.316 12.594-48.367 27.836-67.008l8.4375 8.4375c2.5195 2.5195 5.668 3.6523 8.9414 3.6523s6.4219-1.2578 8.9414-3.6523c4.9141-4.9141 4.9141-12.848 0-17.758l-8.4375-8.4375c18.641-15.242 41.816-25.316 67.008-27.836v11.711c0 6.9258 5.668 12.594 12.594 12.594s12.594-5.668 12.594-12.594v-11.965c25.316 2.5195 48.367 12.594 67.008 27.836l-8.4375 8.4375c-4.9141 4.9141-4.9141 12.848 0 17.758 2.5195 2.5195 5.668 3.6523 8.9414 3.6523 3.2734 0 6.4219-1.2578 8.9414-3.6523l8.4375-8.4375c15.242 18.641 25.316 41.816 27.836 67.008h-11.961c-6.9258 0-12.594 5.668-12.594 12.594-0.003906 6.9297 5.6641 12.723 12.594 12.723z"/>
 <path d="m688.17 524.43c-27.836 0-50.383 22.547-50.383 50.383s22.547 50.383 50.383 50.383c27.836 0 50.383-22.547 50.383-50.383s-22.547-50.383-50.383-50.383zm0 75.57c-13.855 0-25.191-11.336-25.191-25.191 0-13.855 11.336-25.191 25.191-25.191s25.191 11.336 25.191 25.191c0 13.855-11.336 25.191-25.191 25.191z"/>
 <path d="m423.67 448.86c-6.9258 0-12.594 5.668-12.594 12.594v12.594c-6.9258 0-12.594 5.668-12.594 12.594s5.668 12.594 12.594 12.594v176.33c-6.9258 0-12.594 5.668-12.594 12.594 0 6.9258 5.668 12.594 12.594 12.594v12.594c0 6.9258 5.668 12.594 12.594 12.594s12.594-5.668 12.594-12.594v-251.89c0-6.9258-5.6641-12.594-12.594-12.594z"/>
 <path d="m385.88 486.64c0-6.9258-5.668-12.594-12.594-12.594v-12.594c0-6.9258-5.668-12.594-12.594-12.594-6.9258 0-12.594 5.668-12.594 12.594v251.91c0 6.9258 5.668 12.594 12.594 12.594 6.9258 0 12.594-5.668 12.594-12.594v-12.594c6.9258 0 12.594-5.668 12.594-12.594s-5.668-12.594-12.594-12.594v-176.34c6.9258 0 12.594-5.668 12.594-12.594z"/>
</svg>
