<?xml version="1.0" encoding="UTF-8"?>
<svg width="1200pt" height="1200pt" version="1.1" viewBox="0 0 1200 1200" xmlns="http://www.w3.org/2000/svg">
 <g>
  <rect width="1200" height="1200" fill="#fff"/>
  <path d="m600 658.95c-6.0469 0-11.336-5.2891-11.336-11.336 0-27.961 14.359-49.879 26.449-67.258 7.5586-11.336 14.359-21.16 14.359-28.719 0-16.625-13.602-30.984-30.984-30.984-12.848 0-24.938 8.3125-28.719 20.402-2.2656 6.0469-8.3125 9.0703-14.359 6.8008-6.0469-2.2656-9.0703-8.3125-6.8008-14.359 7.5586-21.914 27.961-36.273 50.633-36.273 29.473 0 53.656 24.184 53.656 53.656 0 14.359-9.0703 27.207-18.137 41.562-10.578 15.871-22.672 34.008-22.672 54.41-0.75391 6.8047-6.043 12.098-12.09 12.098zm0 43.074c8.3125 0 15.113-6.8008 15.113-15.113s-6.8008-15.113-15.113-15.113-15.113 6.8008-15.113 15.113 6.8008 15.113 15.113 15.113zm181.38-253.16v415.64c0 4.5352-2.2656 8.3125-6.8008 10.578-1.5117 0.75391-3.0234 0.75391-4.5352 0.75391-3.0234 0-5.2891-0.75391-7.5586-3.0234l-26.449-23.426-26.449 23.426c-4.5352 3.7773-10.578 3.7773-15.113 0l-26.453-23.426-26.449 23.426c-4.5352 3.7773-10.578 3.7773-15.113 0l-26.453-23.426-26.449 23.426c-4.5352 3.7773-10.578 3.7773-15.113 0l-26.449-23.426-26.449 23.426c-4.5352 3.7773-10.578 3.7773-15.113 0l-26.453-23.426-26.449 23.426c-3.0234 3.0234-8.3125 3.7773-12.09 1.5117-4.5352-1.5078-6.8047-5.2891-6.8047-9.8242v-529c0-6.0469 5.2891-11.336 11.336-11.336h226.71 2.2656c0.75391 0 0.75391 0 1.5117 0.75391h0.75391c0.75391 0 0.75391 0.75391 1.5117 0.75391h0.75391c0.75391 0.75391 1.5117 0.75391 1.5117 1.5117l56.68 56.68c32.496 32.496 46.855 46.855 53.656 54.41 3.0234 1.5117 5.2891 4.5352 6.0469 8.3125 0.003906 0.76172 0.003906 1.5156 0.003906 2.2734zm-113.36-86.152v74.816h74.816c-21.16-21.16-53.656-53.656-74.816-74.816zm90.688 476.86v-379.37h-102.02c-6.0469 0-11.336-5.2891-11.336-11.336v-102.02h-204.04v492.73l15.113-13.602c2.2656-2.2656 4.5352-3.0234 7.5586-3.0234 3.0234 0 5.2891 0.75391 7.5586 3.0234l26.449 23.426 26.449-23.426c4.5352-3.7773 10.578-3.7773 15.113 0l26.449 23.426 26.449-23.426c4.5352-3.7773 10.578-3.7773 15.113 0l26.449 23.426 26.449-23.426c4.5352-3.7773 10.578-3.7773 15.113 0l26.449 23.426 26.449-23.426c4.5352-3.7773 10.578-3.7773 15.113 0zm-45.344-77.082h-226.71c-6.0469 0-11.336 5.2891-11.336 11.336s5.2891 11.336 11.336 11.336h226.71c6.0469 0 11.336-5.2891 11.336-11.336s-5.2891-11.336-11.336-11.336z"/>
 </g>
</svg>
