<?xml version="1.0" encoding="UTF-8"?>
<svg width="1200pt" height="1200pt" version="1.1" viewBox="0 0 1200 1200" xmlns="http://www.w3.org/2000/svg">
 <defs>
  <clipPath id="a">
   <path d="m222.14 235h755.71v730h-755.71z"/>
  </clipPath>
 </defs>
 <rect width="1200" height="1200" fill="transparent"/>
 <g clip-path="url(#a)">
  <path d="m953.43 298.79h-135.53l-108.7-61.211-3.6523-1.7656h-3.2734c-7.8125 0-14.109 6.3008-14.109 14.109v11.082h-100.76v37.785h-340.83c-13.477 0-24.434 10.961-24.434 24.438v555.57c0 13.602 10.957 24.562 24.434 24.562h0.75781v50.383h125.95v-50.383h214.12v37.785h100.76v9.0703c0 7.8086 6.2969 14.105 14.105 14.105l4.0312-0.25 107.82-60.711h12.594v50.383h125.95v-50.383h0.75391c13.477 0 24.434-10.957 24.434-24.434l0.003906-555.7c0-13.477-10.957-24.438-24.434-24.438zm-605.33 629.76h-75.57v-25.191h75.57zm25.191-49.875v-0.50391h-125.95v0.75391l-0.75781-554.95h340.83v25.191h-285.28c-16.375 0-29.598 13.223-29.598 29.598v444.61c0 16.375 13.223 29.598 29.598 29.598h285.28v25.191zm214.12-378.36h-37.785v-113.36h-226.71v113.36h-25.191v-121.54c0-2.3906 2.0156-4.4062 4.4102-4.4062h285.28zm-239.31 277.1h50.383v12.594h-50.383zm50.379-25.191h-50.383v-12.594h50.383zm-50.379 62.977h50.383v12.594h-50.383zm75.57-75.57h25.191v88.168h-25.191zm50.383 37.785h50.383v12.594h-50.383zm50.379-25.191h-50.383v-12.594h50.383zm-50.379 62.977h50.383v12.594h-50.383zm75.57-100.76h-226.71v113.36h-20.781c-2.3945 0-4.4102-2.0156-4.4102-4.4062v-134.14h289.69v138.55h-37.785zm-25.191-88.168h-50.383v-12.594h50.383zm-50.379 25.191h50.383v12.594h-50.383zm50.379-62.977h-50.383v-12.594h50.383zm-75.57 75.57h-25.191v-88.168h25.191zm-100.76-50.379h50.383v12.594h-50.383zm50.379-25.191h-50.383v-12.594h50.383zm-50.379 62.977h50.383v12.594h-50.383zm239.31 12.594h-37.785v-113.36h-226.71v113.36h-25.191v-138.55h289.69zm-62.977-201.52h-50.383v-12.594h50.383zm-50.379 25.191h50.383v12.594h-50.383zm50.379-62.977h-50.383v-12.594h50.383zm-75.57 75.57h-25.191v-88.168h25.191zm-100.76-50.379h50.383v12.594h-50.383zm50.379-25.191h-50.383v-12.594h50.383zm-50.379 62.977h50.383v12.594h-50.383zm264.5 428.24v-629.76h75.57v629.76zm100.76-647.02 53.152 29.848h-1.8906l125.07 70.281v43.078c-6.9258 0-12.594 5.668-12.594 12.594s5.668 12.594 12.594 12.594v12.594c-6.9258 0-12.594 5.668-12.594 12.594s5.668 12.594 12.594 12.594v251.91c-6.9258 0-12.594 5.668-12.594 12.594s5.668 12.594 12.594 12.594v12.594c-6.9258 0-12.594 5.668-12.594 12.594s5.668 12.594 12.594 12.594v41.941l-176.33 99.25zm214.12 659.61h-75.57v-25.191h75.57zm25.191-50.379h-91.82l54.035-30.48v-57.688h12.594c6.9258 0 12.594-5.668 12.594-12.594s-5.668-12.594-12.594-12.594h-12.594v-12.594h12.594c6.9258 0 12.594-5.668 12.594-12.594s-5.668-12.594-12.594-12.594h-12.594v-251.91h12.594c6.9258 0 12.594-5.668 12.594-12.594 0-6.9258-5.668-12.594-12.594-12.594h-12.594v-12.594h12.594c6.9258 0 12.594-5.668 12.594-12.594 0-6.9258-5.668-12.594-12.594-12.594h-12.594v-58.828l-52.648-29.598 90.434-0.50391z"/>
 </g>
 <path d="m662.98 310.38c0 6.957-5.6367 12.594-12.594 12.594-6.957 0-12.594-5.6367-12.594-12.594s5.6367-12.598 12.594-12.598c6.957 0 12.594 5.6406 12.594 12.598"/>
 <path d="m662.98 385.95c0 6.957-5.6367 12.594-12.594 12.594-6.957 0-12.594-5.6367-12.594-12.594 0-6.957 5.6367-12.594 12.594-12.594 6.957 0 12.594 5.6367 12.594 12.594"/>
 <path d="m662.98 814.18c0 6.957-5.6367 12.594-12.594 12.594-6.957 0-12.594-5.6367-12.594-12.594 0-6.957 5.6367-12.594 12.594-12.594 6.957 0 12.594 5.6367 12.594 12.594"/>
 <path d="m662.98 738.61c0 6.957-5.6367 12.594-12.594 12.594-6.957 0-12.594-5.6367-12.594-12.594s5.6367-12.598 12.594-12.598c6.957 0 12.594 5.6406 12.594 12.598"/>
 <path d="m662.98 461.52c0 6.957-5.6367 12.598-12.594 12.598-6.957 0-12.594-5.6406-12.594-12.598 0-6.9531 5.6367-12.594 12.594-12.594 6.957 0 12.594 5.6406 12.594 12.594"/>
 <path d="m662.98 889.75c0 6.957-5.6367 12.598-12.594 12.598-6.957 0-12.594-5.6406-12.594-12.598 0-6.9531 5.6367-12.594 12.594-12.594 6.957 0 12.594 5.6406 12.594 12.594"/>
 <path d="m738.55 663.04c-6.9258 0-12.594 5.668-12.594 12.594 0 6.9258 5.668 12.594 12.594 12.594 27.836 0 50.508-22.672 50.508-50.508v-75.32c0-27.836-22.672-50.508-50.508-50.508-6.9258 0-12.594 5.668-12.594 12.594s5.668 12.594 12.594 12.594c13.98 0 25.316 11.336 25.316 25.316v75.32c0 13.863-11.336 25.324-25.316 25.324z"/>
 <path d="m738.55 461.52c-6.9258 0-12.594 5.668-12.594 12.594s5.668 12.594 12.594 12.594c41.691 0 75.699 34.008 75.699 75.699v75.32c0 41.691-34.008 75.699-75.699 75.699-6.9258 0-12.594 5.668-12.594 12.594s5.668 12.594 12.594 12.594c55.672 0 100.89-45.219 100.89-100.89v-75.32c0-55.668-45.219-100.89-100.89-100.89z"/>
</svg>
