<?xml version="1.0" encoding="UTF-8"?>
<svg width="1200pt" height="1200pt" version="1.1" viewBox="0 0 1200 1200" xmlns="http://www.w3.org/2000/svg">
 <g>
  <rect width="1200" height="1200" fill="transparent"/>
  <path d="m778.69 819.02c-3.2969 2.0312-5.3438 5.6445-5.3438 9.5156v54.012c0 4-3.3711 7.375-7.3281 7.375-4.0234 0-7.3906-3.3711-7.3906-7.375v-54.012c0-3.8711-2.0469-7.4844-5.3438-9.5156-7.1953-4.4492-11.484-12.156-11.484-20.625 0-13.336 10.824-24.191 24.223-24.191 13.336 0 24.16 10.855 24.16 24.191-0.003907 8.4648-4.3047 16.18-11.492 20.625zm-12.68-67.203c-25.742 0-46.602 20.883-46.602 46.57 0 14.074 6.1406 27.07 16.832 35.855v48.285c0 16.414 13.336 29.758 29.773 29.758 16.367 0 29.699-13.344 29.699-29.758v-48.285c10.695-8.7734 16.836-21.77 16.836-35.848 0-25.684-20.863-46.578-46.539-46.578zm128.72 177v-193.52c0-3.8477-3.1719-6.9648-7-6.9648h-243.5c-3.8242 0-6.9258 3.1172-6.9258 6.9648v193.52c0 3.8477 3.1016 6.9844 6.9258 6.9844h243.5c3.8281-0.003906 7-3.1445 7-6.9844zm-327.14-89.34 47.262-27.285v-76.895c0-16.184 13.203-29.355 29.371-29.355h11.156v-15.742c0-61 49.57-110.63 110.62-110.63 14.656 0 28.719 2.9141 41.59 8.1484l-0.003906-163.85-240 138.54zm-262.32-415.61 70.762 40.84v112.82c0 4 2.1094 7.6914 5.6133 9.6992l76.043 43.918c1.7773 0.99219 3.6992 1.4961 5.6133 1.4961 1.9141 0 3.8984-0.50391 5.6133-1.4961 3.4336-2 5.6133-5.6914 5.6133-9.6992v-99.895l70.691 40.855v277.07l-239.95-138.54zm251.16-157.91 70.762 40.84-240.01 138.54-70.699-40.855zm-104.36 242.69-53.664-31.008v93.434l53.664 31.008zm-42.445-50.398 239.94-138.53 53.664 30.992-239.94 138.55zm146.8 84.773-70.762-40.84 239.94-138.54 70.762 40.84zm252.28 162.93h-85.48v-15.742c0-23.562 19.207-42.73 42.77-42.73 23.57 0 42.707 19.168 42.707 42.73l-0.003906 15.742zm45.543-15.738v15.742h-23.168v-15.742c0-35.906-29.172-65.117-65.086-65.117-35.914 0-65.148 29.215-65.148 65.117v15.742h-23.105v-15.742c0-48.656 39.543-88.246 88.254-88.246 48.648 0 88.254 39.582 88.254 88.246zm33.469 15.738h-11.09v-15.742c0-37.172-18.484-70.094-46.664-90.176v-195.55c0-4-2.1094-7.6914-5.6133-9.6836l-262.32-151.46c-3.4961-2.0078-7.7227-2.0078-11.219 0l-262.32 151.46c-3.5039 1.9922-5.6133 5.6836-5.6133 9.6836v302.92c0 4 2.1094 7.6992 5.6133 9.6992l262.32 151.46c1.7148 1.0078 3.6914 1.4961 5.6133 1.4961 1.9141 0 3.8984-0.48828 5.6133-1.4961l52.805-30.512v90.773c0 16.199 13.203 29.371 29.371 29.371h243.5c16.176 0 29.379-13.168 29.379-29.371v-193.52c-0.007813-16.184-13.207-29.352-29.379-29.352z" fill-rule="evenodd"/>
 </g>
</svg>
