<?xml version="1.0" encoding="UTF-8"?>
<svg width="70pt" height="70pt" version="1.1" viewBox="0 0 1200 1200" xmlns="http://www.w3.org/2000/svg">
 <g>
  <rect width="1200" height="1200" fill="transparent"/>
  <path d="m559.98 518.48c0.32422 0.21875 0.58984 0.53125 0.91406 0.75781 1.2734 0.89453 2.3984 2.0117 3.6133 3l27.945-27.941c-16.902-14.766-38.5-24.207-62.262-25.805v39.527c10.75 1.1406 20.965 4.5195 29.789 10.461z"/>
  <path d="m471.55 532.48-28.031-28.031c-14.75 16.887-24.18 38.461-25.785 62.188h39.59c1.3594-12.562 6.2383-24.27 14.227-34.156z"/>
  <path d="m457.3 580.89h-39.582c1.5859 23.801 11.039 45.438 25.836 62.359l28.055-27.992c-8.0312-9.9883-12.938-21.777-14.309-34.367z"/>
  <path d="m515.94 508.04v-39.555c-23.797 1.5977-45.426 11.062-62.344 25.871l28 28c9.75-7.957 21.664-12.926 34.344-14.316z"/>
  <path d="m481.63 625.41-27.984 27.918c16.91 14.785 38.52 24.23 62.297 25.828v-39.508c-12.645-1.3594-24.406-6.2383-34.312-14.238z"/>
  <path d="m752.56 497.01c-12.238 0-22.195 9.9688-22.195 22.211v109.21c0 12.238 9.957 22.195 22.195 22.195 12.238 0 22.211-9.957 22.211-22.195v-109.21c0-5.9609-2.3398-11.656-6.4336-15.625-4.2617-4.2734-9.8438-6.5859-15.777-6.5859z"/>
  <path d="m530.2 639.65v39.508c23.75-1.5977 45.344-11.031 62.242-25.789l-27.953-27.953c-9.918 8.0039-21.668 12.879-34.289 14.234z"/>
  <path d="m574.55 615.32 27.973 27.973c14.816-16.93 24.285-38.578 25.875-62.398h-39.582c-1.3594 12.617-6.25 24.422-14.266 34.426z"/>
  <path d="m318.88 481.51c0.097656 0 0.17969 0.050781 0.27734 0.054687h14.441c1.4883 0 2.8008-1.3789 2.8008-2.9375v-80.012c0-1.5742-1.3086-2.9531-2.8008-2.9531h-14.648c-0.023438 0-0.046875 0.015626-0.070313 0.015626-0.023437 0-0.046875-0.015626-0.070312-0.015626h-14.398c-1.6289 0-2.9531 1.3242-2.9531 2.9531v80.012c0 1.6172 1.3242 2.9375 2.9531 2.9375h14.191c0.097657-0.003906 0.17969-0.054687 0.27734-0.054687z"/>
  <path d="m812.8 912.84v-28.086h-97.359l26.375 32.902c2.2695 3.4531 5.4727 5.168 8.9688 5.168h52.188c5.4141-0.003907 9.8281-4.4844 9.8281-9.9844z"/>
  <path d="m867.07 277.42c21.727 14.918 36.016 39.91 36.016 68.199v456.43c0 28.289-14.289 53.281-36.016 68.199 36.621-1.2773 66.078-31.273 66.078-68.199l0.003907-456.43c0-36.93-29.457-66.926-66.082-68.203z"/>
  <path d="m559.94 536.89c-9.7461-9.8867-22.836-15.305-36.871-15.305-13.883 0-27.305 5.6133-36.816 15.371-9.9414 9.9414-15.371 22.988-15.371 36.801 0 13.785 5.4453 26.902 15.332 36.914 0.26562 0.26562 0.48828 0.54297 0.69531 0.82031 19.816 19.078 53.527 18.797 73.035-0.71094 9.8711-9.9961 15.316-23.156 15.316-37.027-0.003907-13.887-5.4492-26.988-15.32-36.863zm-36.887 68.023c-17.141 0-31.078-13.953-31.078-31.094s13.938-31.078 31.078-31.078c17.141 0 31.094 13.938 31.094 31.078s-13.953 31.094-31.094 31.094z"/>
  <path d="m523.05 557c-9.2734 0-16.82 7.5469-16.82 16.82 0 9.2891 7.5469 16.836 16.82 16.836 9.2891 0 16.836-7.5469 16.836-16.836 0-9.2734-7.5469-16.82-16.836-16.82z"/>
  <path d="m336.39 749.03v-80.012c0-1.5742-1.3086-2.9531-2.8008-2.9531h-29.188c-1.6289 0-2.9531 1.3242-2.9531 2.9531v80.012c0 1.6289 1.3242 2.9531 2.9531 2.9531h29.188c1.4922-0.003906 2.8008-1.3828 2.8008-2.9531z"/>
  <path d="m588.82 566.63h39.574c-1.6094-23.762-11.066-45.355-25.848-62.254l-27.969 27.961c8 9.8984 12.887 21.656 14.242 34.293z"/>
  <path d="m335.14 336.5c-5.0391 0-9.1328 4.0938-9.1328 9.1211v35.785h7.5898c9.3984 0 17.059 7.7148 17.059 17.211v80.012c0 9.4844-7.6602 17.195-17.059 17.195h-7.5898v155.98h7.5898c9.3984 0 17.059 7.7148 17.059 17.211v80.012c0 9.4961-7.6602 17.211-17.059 17.211l-7.5898-0.003907v35.812c0 5.0273 4.0938 9.1211 9.1328 9.1211h485.21c5.0391 0 9.1328-4.0938 9.1328-9.1211l0.003907-456.43c0-5.0273-4.0938-9.1211-9.1328-9.1211zm323.09 244.39h-15.578c-1.6289 27.742-12.68 52.93-30.059 72.473l11.047 11.047c2.7852 2.7852 2.7852 7.2969 0 10.082-1.3906 1.3906-3.2148 2.0898-5.0391 2.0898s-3.6484-0.69531-5.0391-2.0898l-11.051-11.051c-19.512 17.32-44.645 28.332-72.316 29.973v15.664c0 3.9414-3.1875 7.1289-7.1289 7.1289-3.9414 0-7.1289-3.1875-7.1289-7.1289v-15.664c-27.707-1.6367-52.863-12.668-72.387-30.02l-11.121 11.094c-1.3906 1.3906-3.2148 2.0898-5.0391 2.0898s-3.6484-0.69531-5.0391-2.0898c-2.7852-2.8008-2.7852-7.3086 0-10.082l11.121-11.098c-17.352-19.535-28.379-44.703-30.008-72.422h-15.578c-3.9414 0-7.1289-3.1875-7.1289-7.1289 0-3.9414 3.1875-7.1289 7.1289-7.1289h15.582c1.6484-27.652 12.66-52.766 29.965-72.266l-11.086-11.086c-2.7852-2.7852-2.7852-7.2969 0-10.082 2.7852-2.7852 7.2969-2.7852 10.082 0l11.082 11.082c19.527-17.367 44.703-28.41 72.426-30.047v-15.637c0-3.9414 3.1875-7.1289 7.1289-7.1289 3.9414 0 7.1289 3.1875 7.1289 7.1289v15.637c27.684 1.6445 52.824 12.66 72.34 29.988l11.027-11.023c2.7852-2.7852 7.2969-2.7852 10.082 0 2.7852 2.7852 2.7852 7.2969 0 10.082l-11.023 11.02c17.344 19.508 28.379 44.645 30.031 72.332h15.582c3.9414 0 7.1289 3.1875 7.1289 7.1289-0.003907 3.9453-3.1914 7.1328-7.1328 7.1328zm130.79 47.539c0 20.105-16.363 36.453-36.469 36.453-20.105 0-36.453-16.348-36.453-36.453v-109.21c0-20.105 16.348-36.469 36.453-36.469 9.7461 0 18.91 3.8008 25.801 10.695 6.7539 6.5586 10.668 15.984 10.668 25.773z"/>
  <path d="m335.16 277.18c-37.664 0-68.301 30.703-68.301 68.438v456.43c0 37.734 30.633 68.438 68.301 68.438h0.14062c0.097656-0.003906 0.17969-0.054687 0.27734-0.054687h119.42c0.070312 0 0.125 0.054687 0.19141 0.054687h365.2c37.734 0 68.438-30.703 68.438-68.438v-456.43c0-37.734-30.703-68.438-68.438-68.438h-0.027344zm508.59 68.441v456.43c0 12.895-10.5 23.379-23.395 23.379h-485.21c-12.895 0-23.395-10.484-23.395-23.379v-35.812l-7.3359-0.003907c-9.4961 0-17.211-7.7148-17.211-17.211v-80.008c0-9.4961 7.7148-17.211 17.211-17.211h7.3398v-155.98h-7.3398c-9.4961 0-17.211-7.7148-17.211-17.195v-80.012c0-9.4961 7.7148-17.211 17.211-17.211h7.3398v-35.785c0-12.895 10.5-23.379 23.395-23.379h485.21c12.895 0 23.391 10.484 23.391 23.379z"/>
  <path d="m352.62 922.82h52.148c3.5234 0 6.6992-1.6992 8.5078-4.5547l26.828-33.516-97.398 0.003906v28.156c0 5.4688 4.4414 9.9102 9.9141 9.9102z"/>
  <path d="m857.29 912.84v-28.086h-30.23v28.086c0 3.5664-0.81641 6.9297-2.1953 9.9844h22.598c5.4141-0.003907 9.8281-4.4844 9.8281-9.9844z"/>
 </g>
</svg>
